<svg width="458" height="458" viewBox="0 0 458 458" fill="none" xmlns="http://www.w3.org/2000/svg">
<g filter="url(#filter0_d_2_62)">
<path d="M131.895 126.087C134.792 124.241 136.857 122.926 137.764 122.926C140.802 122.926 113.832 104.689 97.0521 104.689C80.2726 104.689 77 114.293 77 122.926C77 131.559 85.1337 137.689 101.913 137.689C113.684 137.689 125.087 130.424 131.895 126.087Z" fill="#c44449"/>
<path d="M454 225C454 349.264 353.264 450 229 450C104.736 450 4 349.264 4 225C4 100.736 104.736 0 229 0C353.264 0 454 100.736 454 225ZM306 76V76.938C300.851 77.9803 297 82.1741 297 87.1892C297 92.9882 302.149 97.6892 308.5 97.6892C310.139 97.6892 311.698 97.3762 313.109 96.812C319.716 102.908 320.101 109.89 318.857 117.325C316.384 132.11 284.603 136.579 238.049 128.792C208.027 123.77 146.227 105.041 106.783 88.4067C103.968 87.7954 101.026 87.4713 98 87.4713C77.5655 87.4713 61 102.246 61 120.471C61 138.697 77.5655 153.471 98 153.471C105.74 153.471 112.925 151.352 118.865 147.728L163.877 131.256L163.771 130.967C173.191 135.004 183.403 138.762 194 142.013L194.724 317.689H194.719C194.468 332.094 183.373 343.689 169.724 343.689C155.917 343.689 144.724 331.825 144.724 317.189C144.724 316.633 144.74 316.081 144.772 315.533C149.449 314.696 153 310.607 153 305.689C153 300.166 148.523 295.689 143 295.689C138.731 295.689 135.087 298.364 133.652 302.129C128.2 308.457 125 316.16 125 324.471C125 346.01 146.49 363.471 173 363.471C199.51 363.471 221 346.01 221 324.471V148.942C235.538 151.929 250.156 153.689 263.903 153.689C276.301 153.689 286.688 153.012 295.383 151.767C297.123 154.713 300.331 156.689 304 156.689H327V336.689H297C294.239 336.689 292 338.928 292 341.689C292 347.212 296.477 351.689 302 351.689H380C382.761 351.689 385 349.451 385 346.689C385 341.166 380.523 336.689 375 336.689H354V156.689H382C384.761 156.689 387 154.451 387 151.689C387 146.166 382.523 141.689 377 141.689H325.697C336.717 134.054 339 123.513 339 112.276C339 98.0612 335.346 85.582 314.974 78.5101C313.235 77.4262 311.152 76.7669 308.906 76.6957C307.966 76.4546 306.998 76.2226 306 76Z" fill="#c44449"/>
</g>
<defs>
<filter id="filter0_d_2_62" x="0" y="0" width="458" height="458" filterUnits="userSpaceOnUse" color-interpolation-filters="sRGB">
<feFlood flood-opacity="0" result="BackgroundImageFix"/>
<feColorMatrix in="SourceAlpha" type="matrix" values="0 0 0 0 0 0 0 0 0 0 0 0 0 0 0 0 0 0 127 0" result="hardAlpha"/>
<feOffset dy="4"/>
<feGaussianBlur stdDeviation="2"/>
<feComposite in2="hardAlpha" operator="out"/>
<feColorMatrix type="matrix" values="0 0 0 0 0 0 0 0 0 0 0 0 0 0 0 0 0 0 0.25 0"/>
<feBlend mode="normal" in2="BackgroundImageFix" result="effect1_dropShadow_2_62"/>
<feBlend mode="normal" in="SourceGraphic" in2="effect1_dropShadow_2_62" result="shape"/>
</filter>
</defs>
</svg>
